<svg style="color:#1f2937" xmlns="http://www.w3.org/2000/svg"
  width="137.20524234221614" height="72"
  viewBox="-6 -6 137.20524234221614 72"
><style>path[data-unit-idx]{stroke:currentColor;stroke-width:1.5;stroke-linejoin:round;stroke-linecap:round;}</style>
<path d="M8.2137,31.9811 T7.9006,32.0436 7.1736,32.2205 6.2164,32.4802 5.1486,32.7603 4.2299,32.9076 3.311,32.9223 2.1776,32.7247 0.9138,32.1676 -0.0069,31.4891 -0.3978,30.6805 -0.5231,30.1934 A0.5236,0.5236 0 0 1 0.5237,30.168 T0.5141,30.2233 0.6826,30.6035 1.3965,31.2197 2.3695,31.6855 3.5898,31.8627 4.8942,31.7383 5.9007,31.4956 6.8872,31.2383 7.7002,31.0344 8.0119,30.972 A0.5146,0.5146 0 0 1 8.2137,31.9811 ZM-0.1373,29.6755 T0.1557,29.6166 0.8474,29.6901 1.6884,30.1706 2.4346,30.8806 3.0169,31.6508 3.5691,32.5285 4.0572,33.482 4.4174,34.4549 4.7394,35.2965 5.3973,36.2498 6.3831,37.2963 7.3322,37.9636 8.1856,38.1626 9.0502,38.1394 10.0341,38.0175 11.1481,37.7647 12.2536,37.5028 13.2657,37.1883 14.1597,36.7135 15.0162,36.0976 15.9868,35.386 17.043,34.6575 18.0134,33.9485 18.8634,33.0407 19.6004,31.9969 20.2936,30.744 20.9323,29.408 21.577,27.8681 22.288,26.0618 22.9414,24.3026 23.5289,22.6107 23.8558,21.3969 24.0485,20.1949 24.1798,18.9911 24.1825,17.9179 24.1254,16.9141 23.8672,16.1337 23.2508,15.6135 22.3607,15.7306 21.3984,16.3185 20.5431,17.057 19.8832,17.899 19.1932,18.9086 18.6878,19.7758 18.3251,20.8126 17.9454,22.1965 17.6917,23.6505 17.4312,25.153 17.2347,26.4565 17.0406,27.9427 16.8453,29.5662 16.777,31.1016 16.7751,32.7082 16.896,34.171 17.148,35.6313 17.4666,37.1118 17.8475,38.4564 18.3343,39.5715 18.8118,40.292 19.3363,40.7323 19.677,40.9197 A0.533,0.533 0 0 1 19.3168,41.9229 T19.0373,41.8125 18.443,41.4505 17.908,40.9044 17.3392,40.0183 16.7913,38.7599 16.3933,37.3447 16.0642,35.8157 15.805,34.2659 15.6764,32.7075 15.681,31.0485 15.7553,29.4381 15.9526,27.8029 16.1512,26.2964 16.3532,24.9651 16.6167,23.4584 16.8983,21.9101 17.3042,20.4456 17.7392,19.2751 18.2985,18.2992 19.0486,17.2276 19.8455,16.2503 20.8154,15.4377 21.7643,14.8207 22.5977,14.5401 23.4211,14.5703 24.1653,14.8742 24.6826,15.348 24.9984,15.9949 25.2115,16.8275 25.2788,17.9238 25.2694,19.087 25.1325,20.3694 24.9198,21.6555 24.5684,22.9695 23.9722,24.6859 23.3114,26.4644 22.589,28.2976 21.9249,29.8801 21.2488,31.2852 20.4961,32.631 19.6508,33.7988 18.6628,34.8301 17.6648,35.5605 16.6335,36.2711 15.647,36.9924 14.6654,37.6723 13.5904,38.2264 12.5027,38.5602 11.3784,38.8211 10.1492,39.0794 9.0462,39.2068 7.9669,39.1712 7.0742,39.0025 6.4722,38.6884 5.9069,38.2696 5.3587,37.7874 4.7211,37.1425 4.168,36.4338 3.7349,35.6887 3.4022,34.8233 3.096,33.9645 2.6622,33.0926 2.1671,32.2814 1.6908,31.619 1.0111,30.9281 0.35,30.6072 0.1379,30.6859 A0.5236,0.5236 0 0 1 -0.1373,29.6755 Z" fill="currentColor" data-unit-idx="0"/>
<path d="M28.3792,28.176 T28.2586,28.8016 27.9465,30.2755 27.6266,31.8968 27.3062,33.7693 26.9825,35.7252 26.7848,37.1718 26.7156,38.1353 26.7101,38.8372 26.7053,39.3121 26.7031,39.4585 A0.5328,0.5328 0 0 1 25.6375,39.4585 T25.6353,39.3119 25.6308,38.8328 25.6318,38.0697 25.7058,37.027 25.9124,35.548 26.243,33.5854 26.5768,31.6875 26.9104,30.0529 27.2342,28.5967 27.3635,27.9728 A0.5179,0.5179 0 0 1 28.3792,28.176 ZM25.6416,39.3931 T25.7076,38.8775 25.839,37.9693 26.0335,37.0386 26.2915,35.9761 26.6177,34.8463 27.0754,33.5191 27.7374,32.0418 28.4099,30.8095 29.2239,29.7045 30.2056,28.7033 31.0864,28.2034 31.9796,28.1467 32.8106,28.5308 33.4311,29.2204 33.8689,29.9265 34.2186,30.6267 34.3949,31.4762 34.356,32.4505 34.1639,33.5495 33.8362,34.7688 33.5131,36.0056 33.2597,37.3378 33.1277,38.4106 33.1728,39.291 33.6533,39.9549 34.492,40.0991 35.2831,40.1003 36.1467,39.8736 37.0846,39.2357 38.0325,38.2166 39.0429,36.9531 40.023,35.7108 40.9168,34.6774 41.3522,34.2333 A0.5467,0.5467 0 0 1 42.131,35.0007 T41.7377,35.3977 40.881,36.3888 39.8924,37.6378 38.809,38.9719 37.6579,40.1399 36.3836,40.8989 35.2963,41.1717 34.3872,41.1658 33.3781,41.0168 32.5325,40.4608 32.1168,39.4018 32.0493,38.3065 32.1911,37.1318 32.467,35.7281 32.7976,34.4852 33.1118,33.3619 33.3116,32.0859 33.2696,31.0869 32.9588,30.4789 32.4559,29.6922 31.7263,29.2102 30.9469,29.4955 30.109,30.3386 29.3646,31.3401 28.7294,32.4862 28.1012,33.875 27.655,35.1468 27.3332,36.2351 27.074,37.2538 26.8821,38.142 26.7579,39.0286 26.699,39.5238 A0.5328,0.5328 0 0 1 25.6416,39.3931 Z" fill="currentColor" data-unit-idx="1"/>
<path d="M43.7577,27.8186 T43.4937,28.7465 43.1165,30.2624 42.7814,31.8626 42.4414,33.8246 42.2577,35.7832 42.1841,37.2336 42.3085,38.0714 42.7845,38.8008 43.4413,39.1977 44.18,39.1627 45.0988,38.8722 46.1743,38.4246 47.3359,37.8628 48.4139,37.118 49.2796,36.2717 50.1287,35.2904 51.0429,34.1386 51.963,32.8748 52.7119,31.5875 53.1988,30.4923 53.5291,29.6062 53.6959,28.6828 53.7179,27.9906 53.6776,27.8297 A0.5312,0.5312 0 0 1 54.715,27.6006 T54.7726,27.8831 54.76,28.8336 54.5577,29.9776 54.2017,30.943 53.6634,32.1272 52.8519,33.521 51.9034,34.8215 50.9559,36.0131 50.0448,37.0565 49.0307,38.017 47.8139,38.8482 46.5872,39.4383 45.3853,39.9219 44.1438,40.2239 42.9471,40.1159 41.9123,39.3771 41.2597,38.2519 41.1016,37.1963 41.181,35.6787 41.3829,33.6405 41.7382,31.6423 42.094,30.0125 42.4989,28.4578 42.7728,27.5326 A0.5128,0.5128 0 0 1 43.7577,27.8186 ZM53.9967,28.2075 T53.8464,28.1431 53.3648,28.2663 53.4884,28.6841 54.4405,28.9649 55.6581,29.0213 57.045,28.9321 58.2243,28.6897 59.3866,28.2003 60.5134,27.5494 61.4341,26.9689 62.5789,26.6027 63.8077,28.7846 64.147,31.7944 63.8006,33.2107 63.5328,34.3873 63.263,35.5766 62.9975,37.3494 63.023,38.9898 63.4831,39.8169 64.4338,40.1435 65.6404,40.159 67.1438,39.6705 68.8162,38.5294 70.4097,36.8407 71.8362,34.9553 72.7628,33.3927 73.1021,32.7264 A0.5481,0.5481 0 0 1 74.0784,33.2249 T73.7105,33.9438 72.7146,35.6133 71.1981,37.6037 69.4223,39.4312 67.4312,40.7102 65.606,41.2461 64.0221,41.1105 62.6495,40.4103 61.971,39.1129 61.9195,37.1812 62.1968,35.3349 62.4696,34.1441 62.7509,32.93 63.102,31.7203 62.8477,29.1805 62.4291,27.3823 62.013,27.8936 61.0562,28.4904 59.7823,29.2022 58.4435,29.7406 57.11,29.9946 55.5901,30.0729 54.2439,29.9812 53.1534,29.7271 52.4097,29.2842 52.1803,28.476 52.5953,27.6215 53.5424,27.2046 54.2331,27.1602 54.3958,27.2228 A0.5312,0.5312 0 0 1 53.9967,28.2075 Z" fill="currentColor" data-unit-idx="2"/>
<path d="M64.8018,24.9099 T64.7543,24.634 64.6445,24.8143 64.652,25.6465 65.1623,25.6695 65.7905,25.0586 65.6186,24.8135 65.2593,24.8264 A0.5094,0.5094 0 0 1 65.2712,23.8077 T65.8849,23.9598 66.6006,24.6994 66.546,25.6306 66.0235,26.3531 65.2506,26.8481 64.4451,26.8126 63.8072,25.9597 63.6483,24.6683 64.4041,24.0092 65.0795,23.9402 A0.5043,0.5043 0 0 1 64.8018,24.9099 Z" fill="currentColor" data-unit-idx="3"/>
<path d="M82.0433,24.324 T81.7996,24.5958 81.1803,25.3981 80.4734,26.5177 79.8693,27.7903 79.2534,29.209 78.6848,30.6316 78.2317,32.0796 77.8337,33.6375 77.6479,35.1476 77.669,36.5957 77.7796,37.7947 78.0049,38.56 78.3883,39.1069 79.2873,39.5111 80.4612,39.6937 81.4519,39.6421 82.5093,39.3399 83.7054,38.6828 84.8592,37.7194 85.8073,36.5132 86.5667,35.0653 86.9091,34.2904 A0.5471,0.5471 0 0 1 87.9088,34.735 T87.5308,35.58 86.6595,37.1925 85.5553,38.5587 84.2119,39.6442 82.7879,40.388 81.5055,40.7241 80.3405,40.7696 79.2182,40.6288 78.256,40.3104 77.51,39.7187 76.9754,38.8889 76.6919,37.9122 76.5744,36.6069 76.5663,35.0186 76.7773,33.3671 77.1942,31.7512 77.6798,30.2305 78.2663,28.7771 78.9095,27.3243 79.5849,25.9466 80.3704,24.7454 81.0336,23.9061 81.2788,23.6352 A0.5145,0.5145 0 0 1 82.0433,24.324 Z" fill="currentColor" data-unit-idx="4"/>
<path d="M71.0902,30.5168 T71.7545,30.3744 73.135,30.1329 74.7283,29.9825 76.4699,29.8843 78.25,29.7886 79.9412,29.5972 81.4457,29.2599 82.9019,28.8172 84.1666,28.3772 85.0668,28.1027 85.7044,28.0021 85.9794,27.9841 A0.5362,0.5362 0 0 1 86.048,29.0543 T85.8595,29.0661 85.3713,29.148 84.5263,29.4123 83.2179,29.8641 81.6825,30.3249 80.0666,30.6766 78.307,30.8718 76.5276,30.9616 74.8279,31.0479 73.3121,31.1772 71.9667,31.3973 71.3007,31.531 A0.5179,0.5179 0 0 1 71.0902,30.5168 Z" fill="currentColor" data-unit-idx="5"/>
<path d="M87.6157,34.789 T88.3788,34.7842 90.3807,33.9903 92.06,32.6418 92.7455,31.5903 93.1084,30.6188 93.168,29.5767 92.9168,28.7785 92.3048,28.6349 91.559,28.8986 90.9618,29.3538 90.1066,30.2252 89.2044,31.256 88.5086,32.3928 87.88,33.9598 87.497,35.5473 87.4248,36.7927 87.6572,37.717 88.2301,38.4958 88.9108,39.0524 89.6142,39.2605 90.6094,39.1776 91.5046,38.8314 92.281,38.2827 93.1825,37.5765 94.0982,36.7928 95.0327,35.9914 96.2804,34.8762 97.5344,33.6907 98.6145,32.6777 99.596,31.6386 100.523,30.5805 101.5607,29.5983 102.5341,28.8241 103.4622,28.2438 104.2324,27.9255 105.1611,27.8238 106.1439,27.9659 106.9175,28.4199 107.5134,29.0662 107.9219,29.8169 108.2242,30.8291 108.3268,31.7486 108.3267,32.4113 108.3233,32.7617 A0.5264,0.5264 0 0 1 107.2705,32.7621 T107.2635,32.1721 107.2103,31.1325 106.8918,30.1098 106.1721,29.2137 105.0609,28.942 104.0301,29.1788 103.2145,29.6866 102.311,30.4012 101.3497,31.3022 100.3993,32.3823 99.3692,33.4763 98.2928,34.4859 97.0088,35.6986 95.7473,36.8253 94.8108,37.6275 93.8556,38.4409 92.8911,39.1919 91.9115,39.8265 90.6576,40.2506 89.2776,40.2695 88.2502,39.9057 87.3409,39.101 86.6149,37.9955 86.3443,36.7559 86.437,35.2982 86.8804,33.5464 87.5951,31.815 88.3875,30.5587 89.3557,29.4649 90.3537,28.5026 91.2318,27.9135 92.1502,27.6296 92.9157,27.6073 93.5346,27.8873 93.9971,28.4777 94.2305,29.2788 94.2868,30.066 94.112,30.997 93.6391,32.1709 92.7712,33.4132 90.9803,34.8709 89.4498,35.7467 88.3841,35.8183 87.6157,35.8135 A0.5123,0.5123 0 0 1 87.6157,34.789 ZM107.2705,32.7619 T107.2725,32.5703 107.2209,31.9755 107.0475,31.2762 106.5465,30.6154 105.6734,30.0923 104.7948,29.8704 103.8574,29.8115 102.8713,29.8792 101.9598,30.1252 101.0548,30.5541 100.2776,31.1544 99.6241,31.9363 99.1481,32.8915 98.8504,34.0495 98.6581,35.3831 98.5897,36.7886 98.7585,37.8731 99.1485,38.526 99.6774,38.9358 100.6623,39.1232 101.7326,39.053 102.6109,38.6911 103.5099,38.0876 104.3773,37.2777 105.1512,36.442 105.9296,35.4715 106.7648,34.1938 107.5406,32.7117 108.2607,31.0231 109.0532,29.0443 109.9198,26.9092 110.6507,24.7979 111.3202,22.7922 111.9885,20.7875 112.5248,19.051 112.7954,17.9285 112.8636,17.3745 112.8667,17.2606 A0.5434,0.5434 0 0 1 113.9531,17.2846 T113.9496,17.469 113.8649,18.1687 113.5762,19.3736 113.0312,21.1362 112.3627,23.1415 111.6892,25.1574 110.9381,27.3223 110.0736,29.4508 109.268,31.4565 108.5116,33.2238 107.6779,34.7962 106.7816,36.1608 105.9557,37.1829 105.1135,38.0838 104.1037,38.9921 102.9983,39.6998 101.8785,40.1148 100.8209,40.2416 99.8975,40.1374 99.0142,39.7676 98.2259,39.0823 97.7055,38.0942 97.4981,36.7492 97.576,35.221 97.7975,33.7607 98.1871,32.3984 98.7989,31.2341 99.6282,30.2975 100.6006,29.5803 101.7006,29.0927 102.7996,28.8227 103.9447,28.7691 104.9874,28.8501 105.7903,29.0132 106.5008,29.2741 107.353,30.0197 108.0301,30.9626 108.2453,31.8536 108.3213,32.5703 108.3233,32.7619 A0.5264,0.5264 0 0 1 107.2705,32.7619 ZM113.3812,17.8152 T113.2539,17.8061 113.1265,17.797 A0.5386,0.5386 0 0 1 113.1834,16.7213 T113.311,16.7256 113.4386,16.73 A0.5434,0.5434 0 0 1 113.3812,17.8152 ZM113.5298,17.6459 T113.3316,17.8342 112.9055,18.3729 112.434,19.2766 111.9978,20.4072 111.4716,21.7943 110.6774,23.7245 109.6923,26.41 108.891,28.87 108.3494,30.7527 107.8166,32.6826 107.4166,34.5871 107.2802,36.1276 107.6179,37.3056 108.2048,38.217 108.7645,38.6699 109.5251,39.0018 110.3153,39.249 111.14,39.3039 112.2071,39.1205 113.6167,38.5604 114.8835,38.0286 116.1839,37.321 117.7577,36.1837 119.3849,34.9008 120.2943,34.2009 A0.5455,0.5455 0 0 1 120.9603,35.0651 T120.062,35.7585 118.3953,37.0699 116.6582,38.2952 115.2906,39.0398 113.9953,39.5816 112.3623,40.187 111.0482,40.3795 110.0078,40.2821 109.0614,39.9821 108.1032,39.4992 107.3391,38.8648 106.7615,38.0498 106.3272,37.1585 106.189,36.0592 106.3445,34.362 106.7587,32.3907 107.2961,30.4483 107.8487,28.5336 108.6684,26.0278 109.6689,23.3082 110.4541,21.4117 110.9913,20.0111 111.4964,18.7558 112.0874,17.6928 112.5839,17.0662 112.7801,16.8724 A0.5386,0.5386 0 0 1 113.5298,17.6459 Z" fill="currentColor" data-unit-idx="6"/>
<path d="M125.0012,10.4806 T124.9991,11.0488 124.9868,12.7271 124.9085,15.342 124.7662,18.6168 124.6732,21.8018 124.58,25.0948 124.4392,27.9934 124.3098,29.7362 124.2394,30.9367 124.2246,31.7073 124.2173,31.9999 A0.5407,0.5407 0 0 1 123.136,31.9859 T123.1363,31.6907 123.1466,30.8792 123.2198,29.6524 123.3501,27.9356 123.4934,25.0652 123.5915,21.7708 123.6917,18.5683 123.8429,15.3101 123.9334,12.7138 123.9634,11.0357 123.9756,10.4677 A0.5128,0.5128 0 0 1 125.0012,10.4806 Z" fill="currentColor" data-unit-idx="7"/>
<path d="M123.9411,40.3011 T123.8926,39.9911 123.6896,39.4812 123.535,39.2814 A0.4999,0.4999 0 0 1 123.8932,38.3479 T124.1503,38.4884 124.6247,39.0775 124.889,39.8371 124.936,40.1481 A0.5033,0.5033 0 0 1 123.9411,40.3011 ZM124.0517,39.1833 T123.8949,39.3221 123.6365,40.015 123.8418,40.799 124.4341,40.6961 124.7087,39.9378 124.6195,39.394 124.541,39.2758 A0.5098,0.5098 0 0 1 125.4667,38.8485 T125.5895,39.4038 125.6715,40.3862 125.3504,41.2279 124.5378,41.8193 123.687,41.906 123.0321,41.5275 122.6144,40.831 122.6087,39.9992 122.859,39.1725 123.2052,38.6076 123.3765,38.446 A0.4999,0.4999 0 0 1 124.0517,39.1833 ZM124.9663,39.5705 T124.8229,39.5546 124.4226,40.0058 124.2607,40.5697 124.3557,40.6666 A0.5073,0.5073 0 0 1 123.4234,41.067 T123.3183,40.6982 123.3523,39.909 123.7499,39.1487 124.3494,38.6736 124.8659,38.5461 125.0414,38.5538 A0.5098,0.5098 0 0 1 124.9663,39.5705 Z" fill="currentColor" data-unit-idx="8"/>



</svg>